<svg width="70" height="33" viewBox="0 0 70 33" fill="none" xmlns="http://www.w3.org/2000/svg">
<path d="M48.0765 0.5C50.0278 0.500014 51.86 1.54875 52.8226 3.19824C52.9396 3.39871 54.8014 6.61007 56.6351 9.77344C57.5517 11.3549 58.4607 12.924 59.1409 14.0977C59.481 14.6844 59.7644 15.1724 59.9622 15.5137C60.0611 15.6843 60.1388 15.8189 60.1917 15.9102C60.218 15.9556 60.2386 15.9901 60.2523 16.0137L60.2718 16.0479L60.2728 16.0488V16.0498L61.2054 17.6592V0.641602H64.1888V26.4453C64.1888 26.6925 63.9881 26.8914 63.7454 26.8916C63.5891 26.8916 63.439 26.8025 63.3694 26.6836C63.2732 26.5169 60.0989 21.0274 57.0296 15.7178L50.6829 4.74121C50.1911 3.89882 49.2774 3.37988 48.2991 3.37988C46.769 3.38004 45.5286 4.62704 45.5286 6.15723V26.4453C45.5286 26.6922 45.3275 26.8916 45.0843 26.8916C44.9671 26.8916 44.8535 26.8418 44.7747 26.7666L44.7093 26.6836C44.6267 26.5409 41.4432 21.0388 38.3646 15.7168C35.1259 10.1186 32.0656 4.83026 32.015 4.74316V4.74219C31.523 3.89904 30.6081 3.37988 29.6292 3.37988C28.0998 3.3801 26.8587 4.62699 26.8587 6.15723V26.0312C26.8587 26.1433 26.7999 26.3076 26.6683 26.4482C26.5412 26.584 26.3847 26.6572 26.2318 26.6572H16.1263C10.4379 26.6572 5.80697 22.0167 5.80695 16.3115C5.80695 10.6063 10.4379 5.96582 16.1263 5.96582H20.8148V8.95898H16.1683C12.1161 8.95924 8.83331 12.2522 8.83331 16.3115C8.83333 20.3709 12.1161 23.6638 16.1683 23.6641H22.3128C23.1924 23.6624 23.8065 22.9953 23.8773 22.2246L23.8841 22.0693V6.04785C23.8841 2.98419 26.362 0.500161 29.4153 0.5C31.2445 0.5 32.9694 1.42137 33.971 2.89551L34.1614 3.19824C34.2778 3.39742 36.1399 6.60936 37.9739 9.77344C38.8907 11.355 39.8005 12.924 40.4808 14.0977C40.8208 14.6843 41.1033 15.1724 41.3011 15.5137C41.4 15.6843 41.4777 15.8189 41.5306 15.9102C41.5569 15.9555 41.5775 15.9901 41.5911 16.0137L41.6107 16.0479L41.6116 16.0488V16.0498L42.5443 17.6592V6.04785C42.5443 2.98409 45.023 0.5 48.0765 0.5Z" fill="#9CA0AC" stroke="#9CA0AC"/>
<path d="M16.1309 0.641785H20.8145V3.63495H16.126C9.1511 3.6351 3.47949 9.32276 3.47949 16.3117C3.47969 23.3011 9.15122 28.9883 16.126 28.9885H26.2314C27.8154 28.9885 29.1865 27.6157 29.1865 26.0314V6.15741C29.1865 5.91054 29.387 5.71112 29.6299 5.71112C29.7857 5.71124 29.9352 5.80007 30.0049 5.91913V5.91815C30.055 6.00415 33.254 11.5355 36.3496 16.8859C39.588 22.4839 42.6481 27.7716 42.6992 27.8596L42.7002 27.8605C43.1926 28.703 44.1059 29.2228 45.085 29.2228C46.6145 29.2226 47.8564 27.9761 47.8564 26.4455V6.15741C47.8564 5.91054 48.0569 5.71112 48.2998 5.71112C48.4561 5.71128 48.606 5.80018 48.6748 5.91815L48.6787 5.92596C48.6809 5.9297 48.6838 5.9352 48.6875 5.94159C48.6951 5.95466 48.7062 5.97299 48.7197 5.99628C48.7467 6.04284 48.7848 6.10954 48.834 6.19452C48.9324 6.36466 49.0743 6.6089 49.252 6.9162C49.6073 7.53076 50.108 8.39777 50.7041 9.42889C51.8964 11.4913 53.4694 14.2108 55.0156 16.8849C58.2517 22.4831 61.3097 27.7724 61.3604 27.8596V27.8605C61.8522 28.7034 62.7663 29.2228 63.7451 29.2228C65.2753 29.2228 66.5166 27.9761 66.5166 26.4455V0.641785H69.5V26.5558C69.4998 29.619 67.0219 32.1025 63.9688 32.1027C62.0174 32.1027 60.1846 31.0538 59.2217 29.4045C59.1029 29.201 57.2419 25.9911 55.4092 22.8293C54.4925 21.2478 53.5835 19.6787 52.9033 18.5051C52.5632 17.9183 52.2798 17.4303 52.082 17.0891C51.9831 16.9184 51.9055 16.7839 51.8525 16.6926C51.8264 16.6474 51.8066 16.6126 51.793 16.5891L51.7734 16.5549L51.7715 16.5529L50.8389 14.9435V26.5558C50.8387 29.6192 48.3612 32.1027 45.3076 32.1027C43.4783 32.1027 41.7535 31.1813 40.752 29.7072L40.5615 29.4045C40.4709 29.2496 38.6091 26.0378 36.7686 22.8625C35.8487 21.2756 34.9343 19.6983 34.25 18.5178C33.9079 17.9275 33.6229 17.4355 33.4238 17.092C33.3243 16.9203 33.2456 16.7854 33.1924 16.6935C33.1659 16.6478 33.1456 16.6127 33.1318 16.5891L33.1123 16.5549L33.1113 16.5539V16.5529L32.1787 14.9435V26.0275C32.1811 28.0212 31.5921 29.4941 30.6055 30.4689C29.6175 31.4451 28.1693 31.9825 26.334 31.9816H16.1309C7.49958 31.9816 0.500195 24.9672 0.5 16.3117C0.5 7.65638 7.49944 0.641807 16.1309 0.641785Z" fill="#9CA0AC" stroke="#9CA0AC"/>
<path d="M3.97931 16.3115C3.97931 23.0258 9.42838 28.4881 16.1261 28.4881H26.2317C27.5391 28.4881 28.6863 27.3402 28.6863 26.0313V6.15708C28.6863 5.63541 29.1093 5.21109 29.6297 5.21109C29.9582 5.21109 30.2748 5.38974 30.4368 5.6666C30.4871 5.75374 33.6877 11.2857 36.7827 16.6353C40.0217 22.234 43.081 27.5217 43.1316 27.6086C43.5331 28.2961 44.2811 28.7227 45.0844 28.7227C46.3371 28.7227 47.3561 27.7012 47.3561 26.4455V6.15708C47.3561 5.63541 47.7791 5.21109 48.2995 5.21109C48.628 5.21109 48.9449 5.38974 49.1066 5.6666C49.1586 5.75577 52.3557 11.2866 55.4482 16.635C58.6845 22.2337 61.7418 27.5217 61.7924 27.6086C62.1936 28.2961 62.9419 28.7227 63.7452 28.7227C64.9979 28.7227 66.0166 27.7012 66.0166 26.4455V0.141907H64.6886V26.4455C64.6886 26.9674 64.2656 27.3917 63.7452 27.3917C63.4167 27.3917 63.1001 27.2131 62.9381 26.9362C62.8864 26.847 59.689 21.3165 56.5971 15.9679C53.3602 10.3689 50.3032 5.08112 50.2523 4.99455C49.8511 4.30678 49.1028 3.87983 48.2995 3.87983C47.0468 3.87983 46.0281 4.90159 46.0281 6.15708V26.4455C46.0281 26.9674 45.6048 27.3917 45.0844 27.3917C44.7559 27.3917 44.4393 27.2131 44.2773 26.9362C44.227 26.8494 41.0265 21.3174 37.9314 15.9676C34.6924 10.3689 31.6331 5.08112 31.5825 4.99455C31.1813 4.30678 30.433 3.87983 29.6297 3.87983C28.3773 3.87983 27.3586 4.90159 27.3586 6.15708V26.0313C27.3586 26.5521 26.8664 27.1568 26.2317 27.1568H16.1261C10.1604 27.1568 5.30705 22.2917 5.30705 16.3115C5.30705 10.3313 10.1604 5.46609 16.1261 5.46609H21.3141V4.13483H16.1261C9.42838 4.13483 3.97931 9.59716 3.97931 16.3115Z" fill="white"/>
</svg>
