<svg width="50" height="50" viewBox="0 0 50 50" fill="none" xmlns="http://www.w3.org/2000/svg">
<g clip-path="url(#clip0_2_1451)">
<path d="M15.031 0C17.5642 5.24245e-05 19.9508 0.625919 22.0447 1.73047V28.2686C19.9507 29.3732 17.5644 29.9999 15.031 30C12.4974 30 10.1105 29.3734 8.01636 28.2686V1.73047C10.1104 0.625785 12.4976 0 15.031 0Z" fill="white"/>
<path d="M25.0002 0C11.1931 0 0 11.2096 0 25.0371C0 37.4389 9.01305 47.8348 20.8306 49.8236V30.2607H14.7999V23.2657H20.8306V18.108C20.8306 12.1236 24.4803 8.8624 29.8118 8.8624C32.3652 8.8624 34.5595 9.05296 35.1966 9.13688V15.3922L31.4988 15.394C28.6001 15.394 28.0412 16.7733 28.0412 18.7979V23.2621H34.958L34.0558 30.2571H28.0412V50C40.4105 48.4923 50 37.8257 50 25.03C50 11.2096 38.8069 0 25.0002 0Z" fill="#1778F2"/>
</g>
<defs>
<clipPath id="clip0_2_1451">
<rect width="50" height="50" fill="white"/>
</clipPath>
</defs>
</svg>
