<svg width="100" height="30" viewBox="0 0 100 30" fill="none" xmlns="http://www.w3.org/2000/svg">
<path d="M19.916 0.5V29.1445H0.5V0.5H19.916ZM2.44238 27.1602H17.9629V2.48633H2.44238V27.1602Z" fill="#9CA0AC" stroke="#9CA0AC"/>
<mask id="path-2-inside-1_2_932" fill="white">
<path d="M32.5819 10.3356H32.5533C30.9246 7.68288 29.2804 5.33966 27.6221 2.98087H26.3568V13.299H27.7533V5.89896H27.7674C29.4121 8.5673 31.0553 10.9261 32.7141 13.299H33.9794V2.98087H32.5819V10.3356ZM42.6628 13.299L39.4186 2.98087H37.9648L34.4442 13.299H35.9568L36.8447 10.4834H39.9131L40.7136 13.299H42.6628ZM37.295 9.21504C37.7025 7.85876 38.1101 6.608 38.4734 5.01403H38.503C38.9106 6.6075 39.2739 7.85876 39.6523 9.21504H37.295ZM44.3061 13.299H46.0518V4.3668H48.7287V2.98087H41.6302V4.3668H44.3066V13.299H44.3061ZM51.0262 2.98087H49.2955V13.299H51.0262V2.98087ZM56.4096 13.4748C59.0719 13.4748 60.7302 11.0728 60.7302 7.99192C60.7302 5.10298 58.8965 2.80298 56.4096 2.80298C53.9216 2.80298 52.088 5.10298 52.088 7.99192C52.088 11.0733 53.7463 13.4748 56.4096 13.4748ZM56.4096 4.27785C58.1407 4.27785 58.8674 6.09042 58.8674 7.99243C58.8674 9.9673 58.2282 12.0015 56.4096 12.0015C54.591 12.0015 53.9513 9.9678 53.9513 7.99243C53.9513 6.09042 54.6784 4.27785 56.4096 4.27785ZM63.187 5.89896H63.203C64.8463 8.5673 66.4895 10.9261 68.1483 13.299H69.4136V2.98087H68.0171V10.3356H67.988C66.3593 7.68288 64.7151 5.33966 63.0568 2.98087H61.7915V13.299H63.187V5.89896ZM72.2779 10.4834H75.3483L76.1483 13.299H78.097L74.8538 2.98087H73.399L69.8779 13.299H71.3925L72.2779 10.4834ZM73.9091 5.01403H73.9377C74.3442 6.6075 74.7081 7.85876 75.0875 9.21504H72.7292C73.1377 7.85876 73.5437 6.6075 73.9091 5.01403ZM83.7844 11.9125H80.3377V2.98087H78.6061V13.299H83.7849V11.9125H83.7844ZM31.1588 25.1C30.7945 25.2919 30.4025 25.3512 29.9372 25.3512C28.4392 25.3512 26.9844 23.906 26.9844 21.4598C26.9844 19.1165 28.2498 17.6271 30.1121 17.6271C30.7814 17.6271 31.5086 17.8774 31.9739 18.1718L32.5407 16.9492C31.9593 16.506 31.0136 16.1527 30.0679 16.1527C27.0136 16.1527 25.1221 18.6145 25.1221 21.4296C25.1221 24.4663 27.0136 26.8251 30.0091 26.8251C30.9985 26.8251 31.9734 26.5613 32.905 26.1909V21.9301H31.1588V25.1ZM36.2347 21.9311H39.0865V20.5462H36.2347V17.716H39.1447V16.3306H34.49V26.6487H39.6684V25.2618H36.2347V21.9311ZM44.5272 16.1532C42.0392 16.1532 40.2071 18.4527 40.2071 21.3422C40.2071 24.4226 41.8648 26.8256 44.5272 26.8256C47.189 26.8256 48.8468 24.4226 48.8468 21.3422C48.8468 18.4527 47.0141 16.1532 44.5272 16.1532ZM44.5272 25.3512C42.7081 25.3512 42.0684 23.3171 42.0684 21.3417C42.0684 19.4397 42.7955 17.6266 44.5272 17.6266C46.2578 17.6266 46.9849 19.4392 46.9849 21.3417C46.9849 23.3171 46.3458 25.3512 44.5272 25.3512ZM55.4804 25.1C55.1171 25.2919 54.7236 25.3512 54.2583 25.3512C52.7598 25.3512 51.305 23.906 51.305 21.4598C51.305 19.1165 52.5709 17.6271 54.4337 17.6271C55.1025 17.6271 55.8302 17.8774 56.294 18.1718L56.8618 16.9492C56.2804 16.506 55.3342 16.1527 54.388 16.1527C51.3347 16.1527 49.4437 18.6145 49.4437 21.4296C49.4437 24.4663 51.3347 26.8251 54.3317 26.8251C55.3196 26.8251 56.294 26.5613 57.2262 26.1909V21.9301H55.4804V25.1ZM64.703 19.3085C64.703 17.3025 63.495 16.3306 61.5468 16.3306H58.8262V26.6487H60.5714V22.7572H61.3568L63.0005 26.6487H64.993L62.9432 22.3733C64.0618 21.7693 64.703 20.5462 64.703 19.3085ZM61.299 21.4301C61.1236 21.4452 60.7156 21.4603 60.5709 21.4748V17.7165H61.3432C62.3744 17.7165 62.9558 18.3196 62.9558 19.3814C62.9558 20.7663 62.1282 21.3864 61.299 21.4301ZM68.5432 16.3306L65.0221 26.6487H66.5342L67.4221 23.8326H70.4915L71.2935 26.6487H73.2412L69.997 16.3306H68.5432ZM67.8744 22.5663C68.2814 21.209 68.6885 19.9562 69.0523 18.3648H69.0819C69.4885 19.9562 69.8523 21.209 70.2312 22.5663H67.8744ZM86.0136 20.2954H82.391V16.3306H80.6598V26.6487H82.391V21.6804H86.0136V26.6487H87.7583V16.3588H86.0136V20.2954ZM89.4307 26.6477H91.1613V16.3306H89.4307V26.6477ZM97.2714 25.3512C95.5839 25.3512 94.1578 23.906 94.1578 21.4598C94.1578 19.1165 95.4538 17.6271 97.2277 17.6271C97.897 17.6271 98.5955 17.9361 99.0176 18.2015L99.5699 16.9497C98.9734 16.5366 98.1307 16.1532 97.2282 16.1532C94.188 16.1532 92.3111 18.615 92.3111 21.4301C92.3111 24.4668 94.2025 26.8256 97.2 26.8256C98.0432 26.8256 98.9739 26.4864 99.4975 26.1186L99.0181 24.8356C98.5669 25.1301 97.9407 25.3512 97.2714 25.3512ZM76.5136 16.3306H73.795V26.6487H75.5407V22.7572H76.3251C78.4066 22.7572 79.6709 21.0462 79.6709 19.3085C79.6704 17.3025 78.4643 16.3306 76.5136 16.3306ZM76.2669 21.4301C76.0925 21.4437 75.6714 21.4578 75.5402 21.4713V17.716H76.3246C77.3437 17.716 77.9257 18.3191 77.9257 19.3809C77.9252 20.7663 77.096 21.3864 76.2669 21.4301Z"/>
</mask>
<path d="M32.5819 10.3356H32.5533C30.9246 7.68288 29.2804 5.33966 27.6221 2.98087H26.3568V13.299H27.7533V5.89896H27.7674C29.4121 8.5673 31.0553 10.9261 32.7141 13.299H33.9794V2.98087H32.5819V10.3356ZM42.6628 13.299L39.4186 2.98087H37.9648L34.4442 13.299H35.9568L36.8447 10.4834H39.9131L40.7136 13.299H42.6628ZM37.295 9.21504C37.7025 7.85876 38.1101 6.608 38.4734 5.01403H38.503C38.9106 6.6075 39.2739 7.85876 39.6523 9.21504H37.295ZM44.3061 13.299H46.0518V4.3668H48.7287V2.98087H41.6302V4.3668H44.3066V13.299H44.3061ZM51.0262 2.98087H49.2955V13.299H51.0262V2.98087ZM56.4096 13.4748C59.0719 13.4748 60.7302 11.0728 60.7302 7.99192C60.7302 5.10298 58.8965 2.80298 56.4096 2.80298C53.9216 2.80298 52.088 5.10298 52.088 7.99192C52.088 11.0733 53.7463 13.4748 56.4096 13.4748ZM56.4096 4.27785C58.1407 4.27785 58.8674 6.09042 58.8674 7.99243C58.8674 9.9673 58.2282 12.0015 56.4096 12.0015C54.591 12.0015 53.9513 9.9678 53.9513 7.99243C53.9513 6.09042 54.6784 4.27785 56.4096 4.27785ZM63.187 5.89896H63.203C64.8463 8.5673 66.4895 10.9261 68.1483 13.299H69.4136V2.98087H68.0171V10.3356H67.988C66.3593 7.68288 64.7151 5.33966 63.0568 2.98087H61.7915V13.299H63.187V5.89896ZM72.2779 10.4834H75.3483L76.1483 13.299H78.097L74.8538 2.98087H73.399L69.8779 13.299H71.3925L72.2779 10.4834ZM73.9091 5.01403H73.9377C74.3442 6.6075 74.7081 7.85876 75.0875 9.21504H72.7292C73.1377 7.85876 73.5437 6.6075 73.9091 5.01403ZM83.7844 11.9125H80.3377V2.98087H78.6061V13.299H83.7849V11.9125H83.7844ZM31.1588 25.1C30.7945 25.2919 30.4025 25.3512 29.9372 25.3512C28.4392 25.3512 26.9844 23.906 26.9844 21.4598C26.9844 19.1165 28.2498 17.6271 30.1121 17.6271C30.7814 17.6271 31.5086 17.8774 31.9739 18.1718L32.5407 16.9492C31.9593 16.506 31.0136 16.1527 30.0679 16.1527C27.0136 16.1527 25.1221 18.6145 25.1221 21.4296C25.1221 24.4663 27.0136 26.8251 30.0091 26.8251C30.9985 26.8251 31.9734 26.5613 32.905 26.1909V21.9301H31.1588V25.1ZM36.2347 21.9311H39.0865V20.5462H36.2347V17.716H39.1447V16.3306H34.49V26.6487H39.6684V25.2618H36.2347V21.9311ZM44.5272 16.1532C42.0392 16.1532 40.2071 18.4527 40.2071 21.3422C40.2071 24.4226 41.8648 26.8256 44.5272 26.8256C47.189 26.8256 48.8468 24.4226 48.8468 21.3422C48.8468 18.4527 47.0141 16.1532 44.5272 16.1532ZM44.5272 25.3512C42.7081 25.3512 42.0684 23.3171 42.0684 21.3417C42.0684 19.4397 42.7955 17.6266 44.5272 17.6266C46.2578 17.6266 46.9849 19.4392 46.9849 21.3417C46.9849 23.3171 46.3458 25.3512 44.5272 25.3512ZM55.4804 25.1C55.1171 25.2919 54.7236 25.3512 54.2583 25.3512C52.7598 25.3512 51.305 23.906 51.305 21.4598C51.305 19.1165 52.5709 17.6271 54.4337 17.6271C55.1025 17.6271 55.8302 17.8774 56.294 18.1718L56.8618 16.9492C56.2804 16.506 55.3342 16.1527 54.388 16.1527C51.3347 16.1527 49.4437 18.6145 49.4437 21.4296C49.4437 24.4663 51.3347 26.8251 54.3317 26.8251C55.3196 26.8251 56.294 26.5613 57.2262 26.1909V21.9301H55.4804V25.1ZM64.703 19.3085C64.703 17.3025 63.495 16.3306 61.5468 16.3306H58.8262V26.6487H60.5714V22.7572H61.3568L63.0005 26.6487H64.993L62.9432 22.3733C64.0618 21.7693 64.703 20.5462 64.703 19.3085ZM61.299 21.4301C61.1236 21.4452 60.7156 21.4603 60.5709 21.4748V17.7165H61.3432C62.3744 17.7165 62.9558 18.3196 62.9558 19.3814C62.9558 20.7663 62.1282 21.3864 61.299 21.4301ZM68.5432 16.3306L65.0221 26.6487H66.5342L67.4221 23.8326H70.4915L71.2935 26.6487H73.2412L69.997 16.3306H68.5432ZM67.8744 22.5663C68.2814 21.209 68.6885 19.9562 69.0523 18.3648H69.0819C69.4885 19.9562 69.8523 21.209 70.2312 22.5663H67.8744ZM86.0136 20.2954H82.391V16.3306H80.6598V26.6487H82.391V21.6804H86.0136V26.6487H87.7583V16.3588H86.0136V20.2954ZM89.4307 26.6477H91.1613V16.3306H89.4307V26.6477ZM97.2714 25.3512C95.5839 25.3512 94.1578 23.906 94.1578 21.4598C94.1578 19.1165 95.4538 17.6271 97.2277 17.6271C97.897 17.6271 98.5955 17.9361 99.0176 18.2015L99.5699 16.9497C98.9734 16.5366 98.1307 16.1532 97.2282 16.1532C94.188 16.1532 92.3111 18.615 92.3111 21.4301C92.3111 24.4668 94.2025 26.8256 97.2 26.8256C98.0432 26.8256 98.9739 26.4864 99.4975 26.1186L99.0181 24.8356C98.5669 25.1301 97.9407 25.3512 97.2714 25.3512ZM76.5136 16.3306H73.795V26.6487H75.5407V22.7572H76.3251C78.4066 22.7572 79.6709 21.0462 79.6709 19.3085C79.6704 17.3025 78.4643 16.3306 76.5136 16.3306ZM76.2669 21.4301C76.0925 21.4437 75.6714 21.4578 75.5402 21.4713V17.716H76.3246C77.3437 17.716 77.9257 18.3191 77.9257 19.3809C77.9252 20.7663 77.096 21.3864 76.2669 21.4301Z" fill="#9CA0AC" stroke="#9CA0AC" stroke-width="2" mask="url(#path-2-inside-1_2_932)"/>
</svg>
