<svg width="131" height="38" viewBox="0 0 131 38" fill="none" xmlns="http://www.w3.org/2000/svg">
<path d="M27.9653 6.95377C27.9393 6.7715 27.783 6.66735 27.6528 6.66735C27.5226 6.66735 24.9448 6.61527 24.9448 6.61527C24.9448 6.61527 22.7836 4.5322 22.5753 4.29785C22.367 4.08954 21.9504 4.14162 21.7942 4.1937C21.7942 4.1937 21.3776 4.32389 20.7006 4.5322C20.5964 4.16766 20.4141 3.725 20.1798 3.25631C19.4247 1.79816 18.279 1.017 16.925 1.017C16.8208 1.017 16.7427 1.017 16.6386 1.04304C16.5865 0.990965 16.5605 0.938888 16.5084 0.91285C15.9095 0.287927 15.1544 -0.0245348 14.243 0.0015037C12.4985 0.0535806 10.7539 1.32946 9.32177 3.56877C8.3323 5.15712 7.57719 7.13604 7.34284 8.67231C5.33788 9.29723 3.93181 9.73989 3.87973 9.73989C2.86423 10.0523 2.83819 10.0784 2.708 11.0418C2.65592 11.7709 0 32.3152 0 32.3152L22.2889 36.1689L31.9492 33.7734C31.9231 33.7734 27.9913 7.13604 27.9653 6.95377ZM19.5809 4.89673C19.0601 5.05296 18.4873 5.23523 17.8624 5.44354C17.8624 4.55823 17.7322 3.30839 17.3416 2.26685C18.6696 2.47516 19.3205 3.98539 19.5809 4.89673ZM16.6906 5.78204C15.5189 6.14658 14.243 6.53716 12.9671 6.92773C13.3317 5.5477 14.0087 4.1937 14.8419 3.28235C15.1544 2.94385 15.597 2.57931 16.0918 2.371C16.6125 3.3865 16.7167 4.81862 16.6906 5.78204ZM14.2951 1.17323C14.7117 1.17323 15.0502 1.25135 15.3366 1.45966C14.868 1.694 14.3993 2.05854 13.9826 2.52723C12.863 3.725 12.0037 5.57373 11.6652 7.37039C10.5977 7.70889 9.55611 8.02135 8.61873 8.30777C9.24365 5.46958 11.6132 1.25135 14.2951 1.17323Z" fill="#95BF47"/>
<path d="M27.6538 6.66717C27.5236 6.66717 24.9458 6.61509 24.9458 6.61509C24.9458 6.61509 22.7846 4.53202 22.5763 4.29767C22.4982 4.21956 22.3941 4.16748 22.2899 4.16748V36.1687L31.9502 33.7732C31.9502 33.7732 28.0184 7.13586 27.9923 6.9536C27.9403 6.77133 27.784 6.66717 27.6538 6.66717Z" fill="#5E8E3E"/>
<path d="M16.9257 11.6403L15.8061 15.8325C15.8061 15.8325 14.5562 15.2596 13.072 15.3638C10.8848 15.494 10.8848 16.874 10.8848 17.2125C11.015 19.0873 15.9363 19.5039 16.2227 23.9044C16.431 27.3675 14.4 29.737 11.4316 29.9193C7.89038 30.1015 5.9375 28.0185 5.9375 28.0185L6.69262 24.8157C6.69262 24.8157 8.67154 26.2999 10.2338 26.1958C11.2493 26.1437 11.6399 25.2844 11.5878 24.7116C11.4316 22.264 7.42169 22.4202 7.16131 18.3842C6.953 14.9992 9.16627 11.5882 14.0615 11.2757C15.9623 11.1455 16.9257 11.6403 16.9257 11.6403Z" fill="white"/>
<path d="M45.0211 20.5708C43.9015 19.9719 43.3286 19.4512 43.3286 18.7481C43.3286 17.8628 44.1358 17.29 45.3857 17.29C46.8438 17.29 48.1458 17.8888 48.1458 17.8888L49.1613 14.7642C49.1613 14.7642 48.2239 14.0352 45.4638 14.0352C41.6101 14.0352 38.9282 16.2484 38.9282 19.347C38.9282 21.1176 40.178 22.4456 41.8445 23.409C43.1985 24.1641 43.6672 24.7109 43.6672 25.5181C43.6672 26.3513 42.9902 27.0283 41.7403 27.0283C39.8916 27.0283 38.121 26.0649 38.121 26.0649L37.0273 29.1895C37.0273 29.1895 38.6417 30.2831 41.3758 30.2831C45.3336 30.2831 48.1978 28.3303 48.1978 24.8151C48.1718 22.9143 46.7397 21.5603 45.0211 20.5708Z" fill="black"/>
<path d="M60.7997 13.9834C58.8468 13.9834 57.3105 14.9208 56.1388 16.3269L56.0867 16.3008L57.7792 7.44775H53.3787L49.0824 29.9971H53.4829L54.941 22.2897C55.5139 19.3734 57.0241 17.5767 58.4302 17.5767C59.4197 17.5767 59.8102 18.2537 59.8102 19.2171C59.8102 19.816 59.7582 20.5711 59.628 21.17L57.9615 29.9971H62.362L64.0805 20.8836C64.2628 19.9202 64.393 18.7745 64.393 17.9933C64.419 15.4936 63.1171 13.9834 60.7997 13.9834Z" fill="black"/>
<path d="M74.3933 13.9834C69.0815 13.9834 65.5663 18.7745 65.5663 24.1124C65.5663 27.5234 67.6754 30.2835 71.6332 30.2835C76.8409 30.2835 80.3561 25.6226 80.3561 20.1545C80.3822 17.0039 78.5334 13.9834 74.3933 13.9834ZM72.2321 26.9245C70.7219 26.9245 70.097 25.6486 70.097 24.0342C70.097 21.5085 71.3989 17.3944 73.7944 17.3944C75.3567 17.3944 75.8775 18.7484 75.8775 20.0504C75.8775 22.7584 74.5495 26.9245 72.2321 26.9245Z" fill="black"/>
<path d="M91.656 13.9834C88.6876 13.9834 86.9951 16.6133 86.9951 16.6133H86.9431L87.2035 14.2438H83.2977C83.1154 15.8321 82.7509 18.2797 82.4124 20.1024L79.3398 36.2463H83.7403L84.9641 29.7106H85.0683C85.0683 29.7106 85.9796 30.2835 87.6461 30.2835C92.8278 30.2835 96.2128 24.9716 96.2128 19.6077C96.2128 16.6393 94.8848 13.9834 91.656 13.9834ZM87.4378 26.9766C86.2921 26.9766 85.6151 26.3256 85.6151 26.3256L86.3442 22.2115C86.865 19.4515 88.2971 17.6288 89.8333 17.6288C91.1873 17.6288 91.6039 18.8786 91.6039 20.0504C91.6039 22.9146 89.9114 26.9766 87.4378 26.9766Z" fill="black"/>
<path d="M102.513 7.65576C101.107 7.65576 99.9875 8.77542 99.9875 10.2075C99.9875 11.5095 100.821 12.4208 102.071 12.4208H102.123C103.503 12.4208 104.674 11.4834 104.701 9.86903C104.701 8.59315 103.841 7.65576 102.513 7.65576Z" fill="black"/>
<path d="M96.3428 29.9707H100.743L103.738 14.3477H99.3112L96.3428 29.9707Z" fill="black"/>
<path d="M114.961 14.3219H111.888L112.045 13.5928C112.305 12.0826 113.19 10.7546 114.674 10.7546C115.456 10.7546 116.081 10.9889 116.081 10.9889L116.94 7.52583C116.94 7.52583 116.185 7.13525 114.544 7.13525C112.982 7.13525 111.42 7.57791 110.222 8.59341C108.712 9.86929 108.009 11.718 107.67 13.5928L107.54 14.3219H105.483L104.832 17.6548H106.889L104.546 29.997H108.946L111.289 17.6548H114.336L114.961 14.3219Z" fill="black"/>
<path d="M125.585 14.3477C125.585 14.3477 122.825 21.2999 121.601 25.1015H121.549C121.471 23.8777 120.455 14.3477 120.455 14.3477H115.821L118.477 28.6948C118.529 29.0073 118.503 29.2156 118.372 29.4239C117.852 30.4134 116.992 31.3768 115.977 32.0798C115.144 32.6787 114.206 33.0693 113.477 33.3297L114.701 37.0792C115.586 36.897 117.461 36.1418 119.023 34.6837C121.028 32.8089 122.903 29.8926 124.804 25.9348L130.194 14.3477H125.585Z" fill="black"/>
</svg>
