<svg width="131" height="22" viewBox="0 0 131 22" fill="none" xmlns="http://www.w3.org/2000/svg">
<g clip-path="url(#clip0_2_2635)">
<path d="M47.3713 10.7066C47.3713 8.22939 45.5822 6.10999 42.8848 6.10999C40.1874 6.10999 38.3432 8.25692 38.3432 10.7066C38.3432 13.1288 40.1323 15.2482 42.8297 15.2482C43.9583 15.2482 44.839 14.9179 45.6373 14.2849L46.8208 15.3583L47.4814 14.6152L46.2979 13.6518C46.986 12.826 47.3713 11.7801 47.3713 10.7066ZM45.5822 12.9912L43.9582 11.5324L43.2977 12.2755L44.9216 13.6793C44.3711 14.0647 43.683 14.3399 42.9123 14.3399C40.903 14.3399 39.4442 12.7159 39.4442 10.6791C39.4442 8.66979 40.903 7.01831 42.9123 7.01831C44.9216 7.01831 46.3804 8.64227 46.3804 10.6791C46.3804 11.5874 46.1052 12.3856 45.5822 12.9912ZM55.7389 11.3672C55.7389 13.2664 54.7204 14.2849 53.0414 14.2849C51.3624 14.2849 50.344 13.2114 50.344 11.3122V6.19256H49.3256V11.3672C49.3256 13.8995 50.8395 15.1932 53.0414 15.1932C55.2434 15.1932 56.7573 13.8445 56.7573 11.2571V6.19256H55.7389V11.3672ZM115.605 14.3399C113.651 14.3399 112.192 12.7159 112.192 10.6791C112.192 8.66979 113.651 7.01831 115.605 7.01831C116.789 7.01831 117.615 7.51375 118.413 8.25692L119.073 7.51375C118.165 6.66048 117.229 6.10999 115.605 6.10999C113.018 6.10999 111.119 8.17435 111.119 10.7066C111.119 13.2389 113.018 15.2482 115.55 15.2482C117.174 15.2482 118.193 14.6427 119.101 13.6793L118.44 13.0738C117.642 13.8445 116.844 14.3399 115.605 14.3399ZM121.908 14.1748V11.092H126.725V10.1837H121.908V7.15593H127.303V6.24761H120.89V15.1381H127.358V14.1748H121.908ZM97.7967 6.27513H94.4938V15.1381H95.5122V12.0003H97.6591C99.5583 12.0003 101.127 10.9819 101.127 9.08267C101.127 7.32108 99.8336 6.27513 97.7967 6.27513ZM100.109 9.13772C100.109 10.3213 99.1455 11.092 97.6866 11.092H95.4847V7.21098H97.7417C99.1455 7.15593 100.109 7.84405 100.109 9.13772ZM33.8567 10.1837C31.9024 9.79831 31.4345 9.27534 31.4345 8.4496C31.4345 7.65138 32.1776 7.04583 33.3337 7.04583C34.242 7.04583 35.0677 7.32108 35.921 8.0092L36.4715 7.21098C35.5632 6.46781 34.6824 6.13751 33.3887 6.13751C31.7097 6.13751 30.4711 7.15593 30.4711 8.5597C30.4711 10.0185 31.4345 10.7066 33.4438 11.147C35.2879 11.5324 35.7559 12.0003 35.7559 12.826C35.7559 13.7344 34.9576 14.3399 33.8016 14.3399C32.563 14.3399 31.6547 13.9546 30.7739 13.1013L30.1683 13.8445C31.2418 14.8078 32.3703 15.2482 33.7741 15.2482C35.5081 15.2482 36.8018 14.2298 36.8018 12.7159C36.7192 11.3122 35.8109 10.6516 33.8567 10.1837ZM78.9423 11.092H83.7591V10.1837H78.9423V7.15593H84.3371V6.24761H77.9238V15.1381H84.3922V14.1748H78.9423V11.092ZM89.6219 10.1837C87.6676 9.79831 87.1997 9.27534 87.1997 8.4496C87.1997 7.65138 87.9429 7.04583 89.0989 7.04583C90.0072 7.04583 90.833 7.32108 91.6862 8.0092L92.2367 7.21098C91.3284 6.46781 90.4476 6.13751 89.154 6.13751C87.4749 6.13751 86.2363 7.15593 86.2363 8.5597C86.2363 10.0185 87.1997 10.7066 89.209 11.147C91.0532 11.5324 91.5211 12.0003 91.5211 12.826C91.5211 13.7344 90.7229 14.3399 89.5668 14.3399C88.3282 14.3399 87.4199 13.9546 86.5391 13.1013L85.9336 13.8445C87.007 14.8078 88.1355 15.2482 89.5393 15.2482C91.2734 15.2482 92.567 14.2298 92.567 12.7159C92.4845 11.3122 91.5761 10.6516 89.6219 10.1837ZM62.0971 6.22009L58.0509 15.1381H59.0694L60.1428 12.771H64.9597L65.9781 15.1381H67.0516L63.0054 6.22009H62.0971ZM60.5282 11.8902L62.5375 7.40365L64.5468 11.8902H60.5282ZM105.339 6.22009L101.292 15.1381H102.311L103.384 12.771H108.201L109.22 15.1381H110.293L106.247 6.22009H105.339ZM103.77 11.8902L105.779 7.40365L107.788 11.8902H103.77ZM75.8044 8.91751C75.8044 8.17435 75.5292 7.5688 75.1438 7.1284C74.5933 6.57791 73.7401 6.22009 72.6116 6.22009H68.7856V15.0831H69.804V11.67H72.3363L74.9236 15.0831H76.1623L73.4648 11.4773C74.786 11.2021 75.8044 10.3763 75.8044 8.91751ZM69.7765 10.7617V7.15593H72.529C73.9327 7.15593 74.786 7.81652 74.786 8.88999C74.786 10.0185 73.8226 10.6791 72.4739 10.6791H69.7765V10.7617ZM6.05661 11.7801C6.44196 12.1654 7.13008 12.1654 7.57047 11.7801L14.259 5.09157C15.1123 4.2383 16.4059 4.2383 17.2317 5.09157C17.617 5.47692 18.3051 5.47692 18.7455 5.09157C19.1309 4.70622 19.1309 4.0181 18.7455 3.57771C17.1216 1.95374 14.4241 1.95374 12.8002 3.57771L6.05661 10.2387C5.61621 10.7066 5.61621 11.3122 6.05661 11.7801ZM16.4335 7.26603C16.8188 6.88068 16.8188 6.19256 16.4335 5.75216C16.0481 5.36682 15.36 5.36682 14.9196 5.75216L8.25859 12.4957C7.40533 13.349 6.11166 13.349 5.28592 12.4957C4.43265 11.6425 4.43265 10.3488 5.28592 9.52306L11.8643 2.94464C11.0111 2.09137 9.71741 2.09137 8.89166 2.94464L3.8271 8.0092C2.20314 9.63316 2.20314 12.3306 3.8271 13.9546C5.45107 15.5785 8.14849 15.5785 9.77246 13.9546L16.4335 7.26603ZM17.2317 8.0092L10.4881 14.7528C10.1028 15.1381 10.1028 15.8262 10.4881 16.2666C10.8734 16.652 11.5616 16.652 12.002 16.2666L18.6905 9.57811C19.5438 8.72484 20.8374 8.72484 21.6632 9.57811C22.4889 10.4314 22.5164 11.725 21.6632 12.5508L15.0847 19.0742C15.938 19.9274 17.2317 19.9274 18.0574 19.0742L23.177 13.9546C24.801 12.3306 24.801 9.63316 23.177 8.0092C21.498 6.38524 18.8556 6.38524 17.2317 8.0092ZM20.9475 10.2387C20.5622 9.85336 19.8741 9.85336 19.4337 10.2387L12.7451 16.9823C11.8919 17.8356 10.5982 17.8356 9.77246 16.9823C9.38711 16.5969 8.69899 16.5969 8.25859 16.9823C7.87325 17.3676 7.87325 18.0558 8.25859 18.4961C9.88256 20.1201 12.58 20.1201 14.2039 18.4961L20.8925 11.8076C21.3329 11.3122 21.3329 10.7066 20.9475 10.2387Z" fill="black"/>
</g>
<defs>
<clipPath id="clip0_2_2635">
<rect width="130.192" height="21.7446" fill="white"/>
</clipPath>
</defs>
</svg>
