<svg width="50" height="50" viewBox="0 0 50 50" fill="none" xmlns="http://www.w3.org/2000/svg">
<g clip-path="url(#clip0_2_1458)">
<path d="M38.9018 9.58208C37.0798 7.50651 36.0754 4.83829 36.0764 2.07593H33.8733C34.1578 3.60321 34.7505 5.05646 35.615 6.347C36.4796 7.63754 37.5979 8.73829 38.9018 9.58208ZM18.517 25.8238C16.9719 25.8317 15.4738 26.3561 14.2608 27.3136C13.0478 28.2712 12.1896 29.6069 11.8226 31.1085C11.4557 32.6101 11.6009 34.1913 12.2354 35.6008C12.8699 37.0103 13.9571 38.1672 15.3243 38.8874C14.5768 37.8549 14.1292 36.6357 14.0309 35.3646C13.9325 34.0935 14.1874 32.82 14.7672 31.6847C15.347 30.5494 16.2292 29.5965 17.3164 28.9314C18.4035 28.2663 19.6533 27.9148 20.9276 27.9158C21.6204 27.9248 22.3084 28.0327 22.9707 28.2361V19.8349C22.2943 19.7335 21.6116 19.6801 20.9276 19.6753H20.5603V26.0633C19.8945 25.8846 19.2061 25.8039 18.517 25.8238Z" fill="#FE2C55"/>
<path d="M20.5596 19.6912V17.7427C19.8836 17.6357 19.2008 17.577 18.5164 17.5672C11.8904 17.553 6.02425 21.8488 4.03446 28.1718C2.04467 34.4948 4.39339 41.3778 9.83209 45.1637C7.8377 43.0283 6.50373 40.361 5.99118 37.4838C5.47864 34.6066 5.80943 31.6425 6.94364 28.9493C8.07784 26.256 9.96698 23.9488 12.383 22.306C14.799 20.6632 17.6387 19.7552 20.5592 19.6914L20.5596 19.6912Z" fill="#25F4EE"/>
<path d="M20.9286 41.7622C24.6332 41.7572 27.6783 38.8373 27.8406 35.1346V2.09218H33.8742C33.7511 1.40173 33.6924 0.701325 33.6988 0L25.4459 0V33.0105C25.3086 36.7321 22.2562 39.68 18.5339 39.686C17.4215 39.6765 16.3273 39.4029 15.3414 38.8875C15.9804 39.7733 16.8196 40.4953 17.7906 40.9949C18.7615 41.4945 19.8368 41.7574 20.9286 41.7622ZM45.1442 13.3031V11.4665C42.9235 11.4674 40.7522 10.8118 38.9027 9.58219C40.524 11.4678 42.7149 12.774 45.1442 13.3031Z" fill="#25F4EE"/>
<path d="M45.1398 13.3032V19.6914C41.0289 19.6834 37.0247 18.3816 33.6944 15.9703V32.7551C33.6767 41.1304 26.8852 47.9109 18.5136 47.9109C15.4045 47.9165 12.3702 46.9567 9.82935 45.164C11.9012 47.3935 14.5962 48.9471 17.5633 49.6225C20.5303 50.2978 23.6319 50.0636 26.464 48.9503C29.2961 47.837 31.7274 45.8963 33.4413 43.3809C35.1552 40.8654 36.0722 37.8919 36.0729 34.8477V18.1105C39.4144 20.5059 43.4235 21.7907 47.5342 21.7836V13.5582C46.7294 13.5558 45.927 13.4703 45.1398 13.3032Z" fill="#FE2C55"/>
<path d="M33.6985 32.7548V15.9701C37.0388 18.3676 41.0487 19.6527 45.1598 19.6432V13.2552C42.731 12.7421 40.5349 11.4529 38.9024 9.58208C37.5986 8.73829 36.4802 7.63754 35.6157 6.347C34.7511 5.05646 34.1585 3.60321 33.8739 2.07593H27.8403V35.1349C27.7815 36.5739 27.2762 37.9588 26.3945 39.0973C25.5127 40.2357 24.2985 41.0711 22.9203 41.4873C21.5422 41.9035 20.0687 41.8799 18.7047 41.4198C17.3406 40.9596 16.1536 40.0858 15.3088 38.9197C13.9414 38.1996 12.8539 37.0427 12.2193 35.6331C11.5847 34.2235 11.4393 32.6422 11.8063 31.1404C12.1733 29.6387 13.0317 28.3028 14.2448 27.3452C15.458 26.3876 16.9563 25.8633 18.5016 25.8556C19.1946 25.8618 19.883 25.9695 20.5448 26.1751V19.7869C17.6086 19.8368 14.7503 20.7402 12.3184 22.3871C9.88658 24.034 7.98621 26.3532 6.84905 29.062C5.71189 31.7708 5.38707 34.752 5.91419 37.6423C6.44132 40.5325 7.79762 43.2069 9.81772 45.3393C12.3835 47.073 15.4221 47.971 18.5177 47.9106C26.8892 47.9106 33.6808 41.1302 33.6985 32.7548Z" fill="black"/>
</g>
<defs>
<clipPath id="clip0_2_1458">
<rect width="50" height="50" fill="white"/>
</clipPath>
</defs>
</svg>
