<svg width="50" height="50" viewBox="0 0 50 50" fill="none" xmlns="http://www.w3.org/2000/svg">
<g clip-path="url(#clip0_2_1469)">
<path d="M34.8997 4.8064C29.105 4.89417 24.5394 9.8987 24.5394 15.6934V17.0982C14.1792 15.2544 9.08686 12.4448 3.46772 6.56238C0.1314 13.0595 3.81892 18.503 7.85763 21.4882C5.13583 21.4882 2.8531 21.137 1.09712 19.5567C0.921568 19.4689 0.745921 19.5567 0.833696 19.7323C2.32626 25.1758 7.41856 29.1267 11.3695 30.2681C7.76975 30.2681 5.39915 30.7949 2.853 29.2145C2.67745 29.1267 2.50181 29.2145 2.58958 29.3901C4.52111 34.7458 8.38427 36.414 14.0034 36.414C11.1938 38.5212 7.41856 40.6284 0.306852 40.8039C0.0434302 40.8039 -0.132119 41.1551 0.131303 41.3307C2.76523 43.5256 9.26241 45.1938 18.3934 45.1938C33.407 45.1938 45.611 31.8484 45.611 15.3422V14.4643C47.9816 13.5863 49.2985 11.4791 50.0009 9.37195C50.0009 9.28418 49.9131 9.1964 49.8253 9.1964L44.8207 10.9524C44.733 10.9524 44.6452 10.7768 44.733 10.689C46.8404 9.02076 48.4207 6.91358 49.1231 4.89417C49.1231 4.89417 49.0353 4.8064 48.9474 4.8064C46.5768 5.77221 44.2941 6.73793 42.5381 7.26477C42.2747 7.35255 41.9235 7.35255 41.6602 7.177C40.5188 6.56238 37.0946 4.8064 34.8997 4.8064Z" fill="#1DA1F2"/>
</g>
<defs>
<clipPath id="clip0_2_1469">
<rect width="50" height="50" fill="white"/>
</clipPath>
</defs>
</svg>
