<svg width="101" height="26" viewBox="0 0 101 26" fill="none" xmlns="http://www.w3.org/2000/svg">
<path d="M32.5932 9.9278C32.5932 8.11707 30.8324 6.19395 27.7854 6.19395C24.3637 6.19395 20.6049 8.704 20.0304 13.7116C19.4435 18.7692 22.5904 21.017 25.7623 21.017C28.9342 21.017 30.5951 19.7807 32.2934 18.1323C30.8324 16.2966 28.9467 17.1457 28.5846 17.3331C28.185 17.5329 27.673 17.8076 26.624 17.8076C25.4002 17.8076 24.1514 17.2581 24.1514 14.9729C31.9937 14.1986 32.5932 11.7385 32.5932 9.9278ZM28.7094 10.2275C28.6595 10.7895 28.4347 11.751 24.4636 12.288C25.3003 9.3159 26.8987 9.09112 27.6355 9.09112C28.3223 9.09112 28.7594 9.62809 28.7094 10.2275ZM15.4224 10.7145C15.4224 10.7145 13.7366 16.0094 13.5992 16.4464C13.5493 15.9969 12.313 6.49366 12.313 6.49366C9.44077 6.49366 7.90478 8.54165 7.09307 10.702C7.09307 10.702 5.04507 16.0094 4.87024 16.4589C4.85775 16.0468 4.55805 10.7645 4.55805 10.7645C4.38322 8.11707 1.96058 6.50614 0 6.50614L2.37268 20.9046C5.38224 20.8921 7.00565 18.8566 7.85483 16.6962C7.85483 16.6962 9.66556 12.0133 9.74048 11.801C9.75297 12.0008 11.0392 20.9046 11.0392 20.9046C14.0613 20.9046 15.6847 18.9939 16.5588 16.9085L20.7922 6.50614C17.8076 6.50614 16.2341 8.54165 15.4224 10.7145ZM43.6823 6.16897C41.8216 6.16897 40.398 7.18048 39.1992 8.66653V8.65405L40.2731 0C37.8006 0 35.79 2.1479 35.4029 5.34478L33.5297 20.7922C34.9533 20.7922 36.4644 20.3801 37.2761 19.3311C38.0004 20.2677 39.0868 21.017 40.6977 21.017C44.8687 21.017 47.7284 16.1717 47.7284 11.6261C47.7034 7.48019 45.6929 6.16897 43.6823 6.16897ZM43.2952 13.5992C42.8581 16.1342 41.447 17.8576 40.0858 17.8576C38.7122 17.8576 38.1252 17.2457 38.1252 17.2457C38.3875 15.0228 38.5498 13.6617 39.0493 12.4878C39.5489 11.3139 40.7352 9.44078 41.9715 9.44078C43.1828 9.44078 43.7323 11.0517 43.2952 13.5992ZM58.1432 6.50614H55.2335L55.246 6.35629C55.4458 4.45814 55.8954 3.45912 57.3814 3.29678C58.3929 3.19688 58.8425 2.67239 58.9549 2.09795C59.0423 1.64839 59.317 0.0874146 59.317 0.0874146C53.4728 0.0499512 51.637 2.57249 51.1625 6.41873L51.15 6.50614H51.0876C50.1385 6.50614 49.0895 7.58009 48.9147 8.94126L48.8523 9.44078H50.8004L49.1645 22.9526L48.665 25.3752C48.7274 25.3752 48.8023 25.3877 48.8648 25.3877C51.5996 25.2878 53.3479 23.1274 53.735 19.993L55.0088 9.44078H55.9204C56.8195 9.44078 57.8685 8.54165 58.0558 7.04312L58.1432 6.50614ZM73.2784 6.25639C69.9192 6.25639 66.7473 8.72897 65.7732 12.6127C64.7992 16.4964 66.2727 21.0919 71.2179 21.0919C76.1506 21.0919 78.9978 16.3091 78.9978 12.3255C78.9978 8.36683 76.3129 6.25639 73.2784 6.25639ZM74.6396 13.4743C74.4647 15.2351 73.6905 17.9075 71.5676 17.9075C69.4322 17.9075 69.7319 14.7856 69.9442 13.2995C70.1689 11.7136 71.0556 9.45326 72.9662 9.45326C74.677 9.45326 74.8394 11.4888 74.6396 13.4743ZM95.5941 10.7145C95.5941 10.7145 93.9082 16.0094 93.7709 16.4464C93.7209 15.9969 92.4846 6.49366 92.4846 6.49366C89.6124 6.49366 88.0764 8.54165 87.2647 10.702C87.2647 10.702 85.2167 16.0094 85.0419 16.4589C85.0294 16.0468 84.7297 10.7645 84.7297 10.7645C84.5549 8.11707 82.1322 6.50614 80.1717 6.50614L82.5319 20.9046C85.5414 20.8921 87.1648 18.8566 88.014 16.6962C88.014 16.6962 89.8247 12.0133 89.8872 11.801C89.8997 12.0008 91.1859 20.9046 91.1859 20.9046C94.208 20.9046 95.8314 18.9939 96.7055 16.9085L100.939 6.50614C97.9668 6.50614 96.3933 8.54165 95.5941 10.7145ZM60.8905 0.0874146L58.4429 19.8306L57.9434 22.2657C58.0058 22.2657 58.0807 22.2782 58.1432 22.2782C60.7781 22.2408 62.6513 19.9305 63.0009 17.0209L64.4121 5.69444C64.8366 2.23532 62.7762 0.0874146 60.8905 0.0874146Z" fill="#4353FF"/>
</svg>
