<svg width="105" height="37" viewBox="0 0 105 37" fill="none" xmlns="http://www.w3.org/2000/svg">
<path d="M53.0539 13.5747C51.0681 13.5747 49.7047 15.1159 49.4972 17.0128H56.6403C56.4031 15.0862 55.1879 13.5747 53.0539 13.5747ZM70.5706 13.9896C68.1699 13.9896 67.0436 16.2125 67.0436 18.4058C67.0436 20.5695 68.1106 23.0591 70.5706 23.0591C72.9121 23.0591 74.068 20.6288 74.068 18.554C74.0088 16.4497 72.8825 13.9896 70.5706 13.9896ZM35.5669 13.5747C33.5811 13.5747 32.2177 15.1159 32.0102 17.0128H39.1532C38.8865 15.0862 37.6712 13.5747 35.5669 13.5747ZM99.1723 7.26155C96.9198 7.26155 95.1118 8.53601 94.2819 10.67L93.7187 12.152L93.1852 10.67C92.4146 8.56565 90.5474 7.23191 88.2948 7.23191C87.9984 7.23191 87.7317 7.26157 87.4353 7.32083V5.30537C87.4353 2.25255 85.242 0 82.3373 0C79.4327 0 77.2394 2.28219 77.2394 5.30537V9.21776C75.55 7.79508 73.4753 7.0541 71.2227 7.0541C70.7188 7.0541 70.215 7.08376 69.7407 7.17263V5.33505C69.7407 2.28222 67.5771 0.0296395 64.7317 0.0296395C61.8864 0.0296395 59.7227 2.31186 59.7227 5.33505V9.63271C57.7962 7.97292 55.4251 7.08374 52.8465 7.08374C49.7936 7.08374 46.9779 8.35821 44.9625 10.6701C44.6364 11.0257 44.34 11.411 44.0733 11.8556C43.8065 11.4703 43.5102 11.085 43.1841 10.6997C41.1094 8.35821 38.264 7.08374 35.2409 7.08374C32.9586 7.08374 30.8246 7.79507 29.0463 9.12884C28.1571 7.85436 26.6752 7.08374 24.8672 7.08374C22.5553 7.08374 20.5991 8.65461 19.9767 10.9665C18.8801 7.46905 16.1533 7.08374 14.9974 7.08374C13.8414 7.08374 11.1146 7.46905 10.018 10.9665C9.42522 8.65461 7.49868 7.08374 5.12756 7.08374C2.28221 7.08374 0 9.12885 0 11.7371C0 12.893 0.266748 13.8118 0.622417 14.8195L4.50514 25.8156C5.80925 29.4612 8.44713 29.9947 9.92908 29.9947C12.2113 29.9947 14.0193 28.8092 14.9677 26.7344C15.8865 28.8388 17.6945 30.0244 20.0064 30.0244C21.4883 30.0244 24.1262 29.4909 25.4303 25.8156L25.8749 24.5412C27.7718 27.92 31.2989 30.0244 35.5965 30.0244C38.7086 30.0244 42.8285 28.6906 44.7254 26.2602C46.7408 28.6017 49.764 30.0244 53.2614 30.0244C55.6325 30.0244 58.6261 29.2537 60.7304 27.7718C61.6196 29.0463 63.0719 29.8169 64.7614 29.8169C65.7691 29.8169 66.6583 29.5798 67.3992 29.1352C68.5255 29.6984 69.7704 29.9947 71.0745 29.9947C73.6235 29.9947 75.9946 29.0463 77.8026 27.2383C78.6325 28.9277 80.2922 29.9947 82.3077 29.9947C84.4713 29.9947 86.2497 28.6906 86.9907 26.7937C86.9907 26.7937 86.2497 30.9136 86.2497 31.6842C86.2497 34.3813 88.4726 36.4264 91.4069 36.4264C93.4816 36.4264 95.26 35.0927 96.1195 32.8697L103.618 14.2268C103.915 13.5451 104.063 12.8041 104.063 11.9742C104.122 9.18812 101.543 7.26158 99.1723 7.26158V7.26155ZM26.7048 13.8414L22.7924 24.8672C22.3182 26.2009 21.518 27.179 20.036 27.179C18.643 27.179 17.8131 26.4084 17.3981 25.0746L15.0566 17.7241H15.027L12.6855 25.0746C12.2706 26.4084 11.4407 27.179 10.0476 27.179C8.53605 27.179 7.76543 26.1713 7.29121 24.8672L3.40849 13.9007C3.08246 12.9819 2.93426 12.3891 2.93426 11.737C2.93426 10.6997 3.88271 9.8994 5.21647 9.8994C6.34275 9.8994 7.11337 10.6108 7.38012 11.7074L10.018 20.4509H10.0773L12.7448 11.9149C13.1005 10.67 13.7525 9.8994 15.0566 9.8994C16.3608 9.8994 17.0128 10.6404 17.3685 11.9149L20.036 20.4509H20.0953L22.7332 11.7074C22.9703 10.6108 23.8002 9.8994 24.8968 9.8994C26.2306 9.8994 27.179 10.6997 27.179 12.1224C27.1494 12.6262 26.9123 13.1301 26.7048 13.8414H26.7048ZM36.0411 23.3259C38.3529 23.3259 39.9238 21.4883 41.139 21.4883C42.0875 21.4883 42.9766 22.4367 42.9766 23.4148C42.9766 25.3414 39.005 27.2086 35.6558 27.2086C30.5875 27.2086 27.2679 23.5334 27.2679 18.6133C27.2679 14.0785 30.5875 9.95868 35.3001 9.95868C40.1609 9.95868 43.3619 14.3749 43.3619 18.1391C43.3619 19.4728 42.7692 20.1545 41.4058 20.1545H31.8324C32.1287 22.2885 33.9664 23.3259 36.0411 23.3259ZM59.041 20.0953H49.4676C49.764 22.2886 51.6016 23.2963 53.706 23.2963C56.0178 23.2963 57.5887 21.4586 58.8039 21.4586C59.7524 21.4586 60.6415 22.4071 60.6415 23.3852C60.6415 25.3117 56.6699 27.179 53.3207 27.179C48.2524 27.179 44.9328 23.5038 44.9328 18.5837C44.9328 14.0489 48.2524 9.92904 52.965 9.92904C57.8258 9.92904 61.0268 14.3453 61.0268 18.1094C60.9972 19.4432 60.3748 20.0953 59.041 20.0953ZM71.1338 27.2086C69.5925 27.2086 67.8735 26.5269 67.0436 25.1635C66.7768 26.3491 66.0358 27.0308 64.8206 27.0308C63.5165 27.0308 62.5977 26.0231 62.5977 24.5411V5.36465C62.5977 3.85305 63.4572 2.87497 64.791 2.87497C66.0951 2.87497 66.9843 3.88269 66.9843 5.36465V11.4703C68.2588 10.4329 69.7111 9.8994 71.282 9.8994C76.0835 9.8994 78.5435 14.4045 78.5435 18.7911C78.5138 22.9702 75.6389 27.2086 71.1338 27.2086ZM84.6492 24.6893C84.6492 26.2009 83.7007 27.179 82.3966 27.179C81.0925 27.179 80.144 26.1713 80.144 24.6893V5.30537C80.144 3.79379 81.0925 2.81569 82.3966 2.81569C83.7007 2.81569 84.6492 3.82343 84.6492 5.30537V24.6893ZM101.099 13.1597L93.6298 31.862C93.2741 32.7808 92.5628 33.6403 91.5254 33.6403C89.9842 33.6403 89.184 32.6919 89.184 31.7138C89.184 31.2988 89.3025 30.8246 89.4507 30.4096L91.4069 25.5488L86.4572 13.1894C86.3386 12.8633 86.2497 12.5076 86.2497 12.0334C86.2497 10.9071 87.4353 10.1069 88.3541 10.1069C89.4507 10.1069 90.2213 10.6997 90.577 11.7074L93.6595 20.1249L96.979 11.7074C97.3347 10.6997 98.135 10.1069 99.202 10.1069C100.121 10.1069 101.306 10.9071 101.306 12.0334C101.336 12.478 101.247 12.804 101.099 13.1597Z" fill="#0099D6"/>
</svg>
